<svg width="18" height="22" viewBox="0 0 18 22" fill="none" xmlns="http://www.w3.org/2000/svg">
<path fill-rule="evenodd" clip-rule="evenodd" d="M11 0.00633957C10.9381 0.00212789 10.8758 0 10.8133 0H4.75C2.12665 0 0 2.12665 0 4.75V16.75C0 19.3734 2.12665 21.5 4.75 21.5H12.75C15.3734 21.5 17.5 19.3734 17.5 16.75V7.5H13.75C12.2312 7.5 11 6.26878 11 4.75V0.00633957ZM4 10.75C4 10.3358 4.33579 10 4.75 10H12.75C13.1642 10 13.5 10.3358 13.5 10.75C13.5 11.1642 13.1642 11.5 12.75 11.5H4.75C4.33579 11.5 4 11.1642 4 10.75ZM4.75 15C4.33579 15 4 15.3358 4 15.75C4 16.1642 4.33579 16.5 4.75 16.5H8.75C9.16421 16.5 9.5 16.1642 9.5 15.75C9.5 15.3358 9.16421 15 8.75 15H4.75Z" fill="#895CD6"/>
<path d="M17.0715 6C17.0084 5.90059 16.9387 5.8049 16.8626 5.71359L12.9259 0.989493C12.798 0.836007 12.655 0.69837 12.5 0.578021V4.75C12.5 5.44036 13.0596 6 13.75 6H17.0715Z" fill="#895CD6"/>
</svg>
