<svg width="16" height="20" viewBox="0 0 16 20" fill="none" xmlns="http://www.w3.org/2000/svg">
<path fill-rule="evenodd" clip-rule="evenodd" d="M0 4.75C0 2.12665 2.12665 0 4.75 0H10.75C13.3734 0 15.5 2.12665 15.5 4.75V17.9183C15.5 19.3029 13.9683 20.1391 12.8037 19.3904L8.42595 16.5761C8.01419 16.3114 7.48581 16.3114 7.07405 16.5761L2.69633 19.3904C1.53168 20.1391 0 19.3029 0 17.9183V4.75ZM4.75 5.5C4.33579 5.5 4 5.83579 4 6.25C4 6.66421 4.33579 7 4.75 7H10.75C11.1642 7 11.5 6.66421 11.5 6.25C11.5 5.83579 11.1642 5.5 10.75 5.5H4.75Z" fill="#895CD6"/>
</svg>
