<svg width="21" height="22" viewBox="0 0 21 22" fill="none" xmlns="http://www.w3.org/2000/svg">
<path d="M10.2363 0C11.1479 3.83592e-05 12.0341 0.113833 12.8809 0.328125C13.5719 0.503019 13.9291 1.09957 14.0439 1.5957C14.18 2.18348 14.549 2.7134 15.1113 3.03809C15.6283 3.33645 16.2129 3.40639 16.752 3.2793C17.2475 3.16254 17.9394 3.21852 18.4023 3.75879C19.2631 4.76342 19.9421 5.92979 20.3877 7.20605C20.6535 7.9679 20.2417 8.6542 19.8066 9.0127C19.3043 9.42657 18.9863 10.0506 18.9863 10.75C18.9863 11.4494 19.3043 12.0734 19.8066 12.4873C20.2417 12.8458 20.6535 13.5321 20.3877 14.2939C19.9422 15.5701 19.2631 16.7366 18.4023 17.7412C17.9393 18.2815 17.2475 18.3366 16.752 18.2197C16.2128 18.0926 15.6284 18.1635 15.1113 18.4619C14.5489 18.7866 14.1799 19.3164 14.0439 19.9043C13.9291 20.4004 13.5718 20.9969 12.8809 21.1719C12.0341 21.3861 11.1479 21.5 10.2363 21.5C9.32467 21.5 8.43768 21.3862 7.59082 21.1719C6.89993 20.9969 6.54257 20.4004 6.42773 19.9043C6.2918 19.3166 5.92353 18.7867 5.36133 18.4619C4.84421 18.1634 4.25893 18.0925 3.71973 18.2197C3.2242 18.3366 2.53237 18.2815 2.06934 17.7412C1.2086 16.7366 0.529509 15.5701 0.0839844 14.2939C-0.181762 13.5321 0.229954 12.8458 0.665039 12.4873C1.16736 12.0734 1.48633 11.4494 1.48633 10.75C1.48633 10.0506 1.16736 9.42657 0.665039 9.0127C0.229954 8.6542 -0.18176 7.96787 0.0839844 7.20605C0.529528 5.92981 1.20855 4.76341 2.06934 3.75879C2.53225 3.21855 3.22422 3.16256 3.71973 3.2793C4.2589 3.40644 4.84425 3.33662 5.36133 3.03809C5.92356 2.71338 6.29175 2.18339 6.42773 1.5957C6.54258 1.0996 6.89989 0.503093 7.59082 0.328125C8.43771 0.113826 9.32463 0 10.2363 0ZM10.2363 7.75C8.57947 7.75 7.23633 9.09315 7.23633 10.75C7.23633 12.4069 8.57947 13.75 10.2363 13.75C11.893 13.7497 13.2363 12.4067 13.2363 10.75C13.2363 9.09331 11.893 7.75026 10.2363 7.75Z" fill="#895CD6"/>
</svg>
