<svg width="41" height="41" viewBox="0 0 41 41" fill="none" xmlns="http://www.w3.org/2000/svg">
<path d="M26.05 30.5C27.2167 30.7333 28.3667 30.9 29.5 31C30.6333 31.0667 31.6167 31.0833 32.45 31.05C33.3167 30.9833 33.9333 30.9 34.3 30.8C34.4333 31.3667 34.4667 32.0833 34.4 32.95C34.3333 33.7833 34.15 34.65 33.85 35.55C33.5833 36.4167 33.1667 37.2 32.6 37.9C32.0333 38.6 31.3 39.0833 30.4 39.35C29.8333 39.5167 28.95 39.6833 27.75 39.85C26.55 39.9833 25.1667 40.1 23.6 40.2C22.0667 40.3 20.4667 40.35 18.8 40.35C17.1667 40.3833 15.6 40.35 14.1 40.25C12.6 40.1833 11.2833 40.05 10.15 39.85C9.05 39.6167 8.26667 39.3333 7.8 39C6.9 38.2667 6.4 37.3667 6.3 36.3C6.23333 35.2 6.41667 34.0833 6.85 32.95C7.31667 31.8167 7.88333 30.8667 8.55 30.1C8.95 29.6333 9.55 28.8667 10.35 27.8C11.15 26.7333 12.0167 25.55 12.95 24.25C13.9167 22.9167 14.85 21.6167 15.75 20.35C16.65 19.05 17.4167 17.95 18.05 17.05C18.6833 16.1167 19.0667 15.5333 19.2 15.3C19.5333 14.7 19.7167 14.1167 19.75 13.55C19.8167 12.95 19.7667 12.4333 19.6 12C19.4 11.4333 19.05 10.9667 18.55 10.6C18.0833 10.2 17.3667 9.93333 16.4 9.8C15.9 9.73333 15.2667 9.66667 14.5 9.6C13.7333 9.5 12.9167 9.38333 12.05 9.25C11.2167 9.08333 10.45 8.88333 9.75 8.65C9.08333 8.41667 8.58333 8.13333 8.25 7.8C7.81667 7.36667 7.41667 6.73333 7.05 5.9C6.71667 5.03333 6.45 4.11667 6.25 3.15C6.08333 2.15 6 1.26667 6 0.499999C6.16667 0.566665 6.75 0.633332 7.75 0.699999C8.78333 0.766665 10.0333 0.833331 11.5 0.899997C13 0.966665 14.55 1.03333 16.15 1.1C17.7833 1.13333 19.3167 1.16667 20.75 1.2C22.2167 1.23333 23.4 1.25 24.3 1.25C26.7 1.28333 28.8333 1.23333 30.7 1.1C32.5667 0.933331 33.9 0.749998 34.7 0.549998C35.1667 1.41667 35.4 2.4 35.4 3.5C35.4333 4.56667 35.2833 5.65 34.95 6.75C34.65 7.81667 34.2333 8.8 33.7 9.7C33.5667 9.93333 33.25 10.4333 32.75 11.2C32.25 11.9333 31.6333 12.8333 30.9 13.9C30.2 14.9667 29.45 16.0833 28.65 17.25C27.85 18.3833 27.1 19.4667 26.4 20.5C25.7 21.5333 25.1 22.4 24.6 23.1C24.1333 23.8 23.85 24.2333 23.75 24.4C22.6833 26.0333 22.3667 27.3667 22.8 28.4C23.2333 29.4 24.3167 30.1 26.05 30.5Z" fill="white"/>
</svg>
