<svg width="28" height="32" viewBox="0 0 28 32" fill="none" xmlns="http://www.w3.org/2000/svg">
<path d="M13.0001 3C15.2091 3.00013 17.0001 4.79094 17.0001 7V15.2891L9.23737 15.248L11.7979 12.5312C12.082 12.23 12.0686 11.7559 11.7676 11.4717C11.4663 11.1875 10.9913 11.2008 10.7071 11.502L7.84381 14.5391C7.08622 15.3429 7.07977 16.6327 7.82916 17.4443L10.6592 20.5098C10.9401 20.814 11.4155 20.8334 11.7198 20.5527C12.024 20.2718 12.0425 19.7965 11.7618 19.4922L9.2276 16.748L17.0001 16.7891V24C17.0001 26.2091 15.2091 27.9999 13.0001 28H4.00006C1.79092 28 6.10352e-05 26.2091 6.10352e-05 24V7C6.10352e-05 4.79086 1.79092 3 4.00006 3H13.0001ZM23.6524 15.3242C24.0665 15.3264 24.4006 15.664 24.3985 16.0781C24.3962 16.4923 24.0588 16.8264 23.6446 16.8242L17.0001 16.7891V15.2891L23.6524 15.3242Z" fill="#FF9797"/>
</svg>
