<svg width="25" height="25" viewBox="0 0 25 25" fill="none" xmlns="http://www.w3.org/2000/svg">
<path d="M13 0C15.209 0.000131938 17 1.79094 17 4V12.2891L9.2373 12.248L11.7979 9.53125C12.0819 9.23001 12.0686 8.75589 11.7676 8.47168C11.4663 8.18754 10.9912 8.20076 10.707 8.50195L7.84375 11.5391C7.08615 12.3429 7.07971 13.6327 7.8291 14.4443L10.6592 17.5098C10.9401 17.814 11.4154 17.8334 11.7197 17.5527C12.024 17.2718 12.0424 16.7965 11.7617 16.4922L9.22754 13.748L17 13.7891V21C17 23.2091 15.209 24.9999 13 25H4C1.79086 25 0 23.2091 0 21V4C0 1.79086 1.79086 0 4 0H13ZM23.6523 12.3242C24.0665 12.3264 24.4005 12.664 24.3984 13.0781C24.3962 13.4923 24.0587 13.8264 23.6445 13.8242L17 13.7891V12.2891L23.6523 12.3242Z" fill="#EA5959"/>
</svg>
