<svg width="78" height="139" viewBox="0 0 78 139" fill="none" xmlns="http://www.w3.org/2000/svg">
<path d="M48.1 75C50.4333 75.4667 52.7333 75.8 55 76C57.2667 76.1333 59.2333 76.1667 60.9 76.1C62.6333 75.9667 63.8667 75.8 64.6 75.6C64.8667 76.7333 64.9333 78.1667 64.8 79.9C64.6667 81.5667 64.3 83.3 63.7 85.1C63.1667 86.8333 62.3333 88.4 61.2 89.8C60.0667 91.2 58.6 92.1667 56.8 92.7C55.6667 93.0333 53.9 93.3667 51.5 93.7C49.1 93.9667 46.3333 94.2 43.2 94.4C40.1333 94.6 36.9333 94.7 33.6 94.7C30.3333 94.7667 27.2 94.7 24.2 94.5C21.2 94.3667 18.5667 94.1 16.3 93.7C14.1 93.2333 12.5333 92.6667 11.6 92C9.8 90.5333 8.8 88.7333 8.6 86.6C8.46667 84.4 8.83333 82.1667 9.7 79.9C10.6333 77.6333 11.7667 75.7333 13.1 74.2C13.9 73.2667 15.1 71.7333 16.7 69.6C18.3 67.4667 20.0333 65.1 21.9 62.5C23.8333 59.8333 25.7 57.2333 27.5 54.7C29.3 52.1 30.8333 49.9 32.1 48.1C33.3667 46.2333 34.1333 45.0667 34.4 44.6C35.0667 43.4 35.4333 42.2333 35.5 41.1C35.6333 39.9 35.5333 38.8667 35.2 38C34.8 36.8667 34.1 35.9333 33.1 35.2C32.1667 34.4 30.7333 33.8667 28.8 33.6C27.8 33.4667 26.5333 33.3333 25 33.2C23.4667 33 21.8333 32.7667 20.1 32.5C18.4333 32.1667 16.9 31.7667 15.5 31.3C14.1667 30.8333 13.1667 30.2667 12.5 29.6C11.6333 28.7333 10.8333 27.4667 10.1 25.8C9.43333 24.0667 8.9 22.2333 8.5 20.3C8.16667 18.3 8 16.5333 8 15C8.33333 15.1333 9.5 15.2667 11.5 15.4C13.5667 15.5333 16.0667 15.6667 19 15.8C22 15.9333 25.1 16.0667 28.3 16.2C31.5667 16.2667 34.6333 16.3333 37.5 16.4C40.4333 16.4667 42.8 16.5 44.6 16.5C49.4 16.5667 53.6667 16.4667 57.4 16.2C61.1333 15.8667 63.8 15.5 65.4 15.1C66.3333 16.8333 66.8 18.8 66.8 21C66.8667 23.1333 66.5667 25.3 65.9 27.5C65.3 29.6333 64.4667 31.6 63.4 33.4C63.1333 33.8667 62.5 34.8667 61.5 36.4C60.5 37.8667 59.2667 39.6667 57.8 41.8C56.4 43.9333 54.9 46.1667 53.3 48.5C51.7 50.7667 50.2 52.9333 48.8 55C47.4 57.0667 46.2 58.8 45.2 60.2C44.2667 61.6 43.7 62.4667 43.5 62.8C41.3667 66.0667 40.7333 68.7333 41.6 70.8C42.4667 72.8 44.6333 74.2 48.1 75Z" fill="white"/>
<path d="M11.466 126.06C12.0727 126.181 12.6707 126.268 13.26 126.32C13.8493 126.355 14.3607 126.363 14.794 126.346C15.2447 126.311 15.5653 126.268 15.756 126.216C15.8253 126.511 15.8427 126.883 15.808 127.334C15.7733 127.767 15.678 128.218 15.522 128.686C15.3833 129.137 15.1667 129.544 14.872 129.908C14.5773 130.272 14.196 130.523 13.728 130.662C13.4333 130.749 12.974 130.835 12.35 130.922C11.726 130.991 11.0067 131.052 10.192 131.104C9.39467 131.156 8.56267 131.182 7.696 131.182C6.84667 131.199 6.032 131.182 5.252 131.13C4.472 131.095 3.78733 131.026 3.198 130.922C2.626 130.801 2.21867 130.653 1.976 130.48C1.508 130.099 1.248 129.631 1.196 129.076C1.16133 128.504 1.25667 127.923 1.482 127.334C1.72467 126.745 2.01933 126.251 2.366 125.852C2.574 125.609 2.886 125.211 3.302 124.656C3.718 124.101 4.16867 123.486 4.654 122.81C5.15667 122.117 5.642 121.441 6.11 120.782C6.578 120.106 6.97667 119.534 7.306 119.066C7.63533 118.581 7.83467 118.277 7.904 118.156C8.07733 117.844 8.17267 117.541 8.19 117.246C8.22467 116.934 8.19867 116.665 8.112 116.44C8.008 116.145 7.826 115.903 7.566 115.712C7.32333 115.504 6.95067 115.365 6.448 115.296C6.188 115.261 5.85867 115.227 5.46 115.192C5.06133 115.14 4.63667 115.079 4.186 115.01C3.75267 114.923 3.354 114.819 2.99 114.698C2.64333 114.577 2.38333 114.429 2.21 114.256C1.98467 114.031 1.77667 113.701 1.586 113.268C1.41267 112.817 1.274 112.341 1.17 111.838C1.08333 111.318 1.04 110.859 1.04 110.46C1.12667 110.495 1.43 110.529 1.95 110.564C2.48733 110.599 3.13733 110.633 3.9 110.668C4.68 110.703 5.486 110.737 6.318 110.772C7.16733 110.789 7.96467 110.807 8.71 110.824C9.47267 110.841 10.088 110.85 10.556 110.85C11.804 110.867 12.9133 110.841 13.884 110.772C14.8547 110.685 15.548 110.59 15.964 110.486C16.2067 110.937 16.328 111.448 16.328 112.02C16.3453 112.575 16.2673 113.138 16.094 113.71C15.938 114.265 15.7213 114.776 15.444 115.244C15.3747 115.365 15.21 115.625 14.95 116.024C14.69 116.405 14.3693 116.873 13.988 117.428C13.624 117.983 13.234 118.563 12.818 119.17C12.402 119.759 12.012 120.323 11.648 120.86C11.284 121.397 10.972 121.848 10.712 122.212C10.4693 122.576 10.322 122.801 10.27 122.888C9.71533 123.737 9.55067 124.431 9.776 124.968C10.0013 125.488 10.5647 125.852 11.466 126.06ZM38.4792 119.846C38.6525 121.458 38.5745 122.888 38.2452 124.136C37.9332 125.384 37.4392 126.467 36.7632 127.386C36.1045 128.287 35.3245 129.033 34.4232 129.622C33.5219 130.194 32.5599 130.627 31.5372 130.922C30.5319 131.199 29.5352 131.338 28.5472 131.338C27.5592 131.338 26.5539 131.208 25.5312 130.948C24.5085 130.688 23.5379 130.281 22.6192 129.726C21.7179 129.171 20.9205 128.452 20.2272 127.568C19.5512 126.684 19.0485 125.635 18.7192 124.422C18.3899 123.191 18.3119 121.77 18.4852 120.158C18.6239 118.771 18.9705 117.48 19.5252 116.284C20.0799 115.071 20.7992 114.022 21.6832 113.138C22.5672 112.237 23.5812 111.543 24.7252 111.058C25.8692 110.555 27.0912 110.321 28.3912 110.356C28.4779 110.356 28.6079 110.295 28.7812 110.174C28.9545 110.035 29.1885 109.905 29.4832 109.784C29.7779 109.663 30.1332 109.619 30.5492 109.654C31.3292 109.723 32.1525 110.044 33.0192 110.616C33.8859 111.188 34.7092 111.951 35.4892 112.904C36.2692 113.84 36.9279 114.906 37.4652 116.102C38.0025 117.298 38.3405 118.546 38.4792 119.846ZM28.6252 126.528C29.2319 126.511 29.8039 126.424 30.3412 126.268C30.8959 126.112 31.3899 125.826 31.8232 125.41C32.2565 124.994 32.6032 124.405 32.8632 123.642C33.1405 122.879 33.2879 121.9 33.3052 120.704C33.3225 119.872 33.1405 119.066 32.7592 118.286C32.3779 117.506 31.8492 116.847 31.1732 116.31C30.4972 115.755 29.7259 115.435 28.8592 115.348C27.9232 115.244 27.1259 115.339 26.4672 115.634C25.8085 115.911 25.2625 116.327 24.8292 116.882C24.4132 117.419 24.0925 118.026 23.8672 118.702C23.6419 119.378 23.5032 120.063 23.4512 120.756C23.3472 121.952 23.4599 122.931 23.7892 123.694C24.1185 124.457 24.5605 125.046 25.1152 125.462C25.6699 125.878 26.2592 126.164 26.8832 126.32C27.5245 126.476 28.1052 126.545 28.6252 126.528ZM57.3154 110.07C57.5234 110.243 57.6707 110.581 57.7574 111.084C57.8614 111.587 57.9047 112.133 57.8874 112.722C57.87 113.294 57.7834 113.814 57.6274 114.282C57.4714 114.733 57.246 115.001 56.9514 115.088C56.83 115.123 56.5787 115.175 56.1974 115.244C55.8334 115.296 55.4954 115.365 55.1834 115.452C54.8887 115.539 54.4987 115.686 54.0134 115.894C53.528 116.102 53.112 116.405 52.7654 116.804C52.488 117.133 52.2627 117.48 52.0894 117.844C51.916 118.191 51.8207 118.641 51.8034 119.196C51.786 119.421 51.7774 119.846 51.7774 120.47C51.7774 121.077 51.7774 121.787 51.7774 122.602C51.7774 123.399 51.7774 124.188 51.7774 124.968C51.7947 125.748 51.8034 126.415 51.8034 126.97C51.8034 127.525 51.8034 127.854 51.8034 127.958C51.786 128.478 51.838 128.92 51.9594 129.284C52.0807 129.648 52.2107 129.865 52.3494 129.934C51.916 130.263 51.4827 130.541 51.0494 130.766C50.6334 130.991 50.0354 131.156 49.2554 131.26C48.9607 131.295 48.6314 131.208 48.2674 131C47.9034 130.809 47.5827 130.506 47.3054 130.09C47.0454 129.657 46.9067 129.128 46.8894 128.504C46.8894 127.88 46.8807 127.083 46.8634 126.112C46.8634 125.124 46.8634 124.058 46.8634 122.914C46.8807 121.753 46.8807 120.591 46.8634 119.43C46.846 118.927 46.768 118.451 46.6294 118C46.508 117.549 46.3 117.159 46.0054 116.83C45.7107 116.483 45.3207 116.197 44.8354 115.972C44.35 115.747 43.7434 115.599 43.0154 115.53C42.8247 115.513 42.5647 115.461 42.2354 115.374C41.906 115.287 41.6807 115.201 41.5594 115.114C41.3687 114.975 41.2127 114.715 41.0914 114.334C40.97 113.935 40.8747 113.502 40.8054 113.034C40.736 112.549 40.684 112.072 40.6494 111.604C40.632 111.136 40.632 110.755 40.6494 110.46C40.7187 110.477 40.9094 110.503 41.2214 110.538C41.5507 110.573 41.9407 110.607 42.3914 110.642C42.842 110.659 43.284 110.677 43.7174 110.694C44.0294 110.711 44.4454 110.729 44.9654 110.746C45.5027 110.763 46.0747 110.781 46.6814 110.798C47.288 110.815 47.86 110.833 48.3974 110.85C48.9347 110.85 49.3767 110.85 49.7234 110.85C50.1914 110.833 50.7374 110.815 51.3614 110.798C51.9854 110.781 52.5834 110.763 53.1554 110.746C53.7447 110.711 54.2127 110.677 54.5594 110.642C54.906 110.607 55.27 110.564 55.6514 110.512C56.05 110.443 56.3967 110.373 56.6914 110.304C57.0034 110.217 57.2114 110.139 57.3154 110.07ZM75.1816 112.826C75.2163 113.225 75.2596 113.875 75.3116 114.776C75.381 115.66 75.433 116.683 75.4676 117.844C75.5023 119.005 75.511 120.201 75.4936 121.432C75.4936 122.645 75.4503 123.798 75.3636 124.89C75.2943 125.982 75.1643 126.892 74.9736 127.62C74.6616 128.816 73.795 129.735 72.3736 130.376C70.9523 131.017 69.167 131.338 67.0176 131.338C65.579 131.338 64.357 131.069 63.3516 130.532C62.3463 129.995 61.5663 129.258 61.0116 128.322C60.4743 127.369 60.171 126.277 60.1016 125.046C60.067 124.439 60.041 123.668 60.0236 122.732C60.0063 121.779 59.989 120.756 59.9716 119.664C59.9716 118.555 59.9716 117.463 59.9716 116.388C59.9716 115.313 59.9716 114.334 59.9716 113.45C59.989 112.549 59.9976 111.829 59.9976 111.292C59.9976 110.755 59.9976 110.486 59.9976 110.486C60.1883 110.451 60.5176 110.443 60.9856 110.46C61.471 110.477 61.9736 110.555 62.4936 110.694C63.083 110.833 63.6203 111.067 64.1056 111.396C64.6083 111.725 64.8943 112.202 64.9636 112.826C65.0156 113.346 65.0156 114.126 64.9636 115.166C64.929 116.189 64.8943 117.367 64.8596 118.702C64.8423 120.019 64.877 121.389 64.9636 122.81C64.981 123.105 64.9896 123.443 64.9896 123.824C64.9896 124.205 65.0416 124.578 65.1456 124.942C65.267 125.306 65.501 125.609 65.8476 125.852C66.2116 126.095 66.7663 126.216 67.5116 126.216C68.257 126.216 68.8203 126.112 69.2016 125.904C69.6003 125.696 69.8863 125.41 70.0596 125.046C70.233 124.682 70.337 124.257 70.3716 123.772C70.4236 123.287 70.467 122.767 70.5016 122.212C70.5363 121.848 70.545 121.311 70.5276 120.6C70.5276 119.889 70.519 119.092 70.5016 118.208C70.4843 117.324 70.4583 116.431 70.4236 115.53C70.389 114.629 70.3543 113.797 70.3196 113.034C70.285 112.271 70.259 111.656 70.2416 111.188C70.2243 110.72 70.2156 110.486 70.2156 110.486C70.4063 110.451 70.7356 110.443 71.2036 110.46C71.689 110.477 72.2003 110.555 72.7376 110.694C73.327 110.833 73.8643 111.075 74.3496 111.422C74.835 111.751 75.1123 112.219 75.1816 112.826Z" fill="white"/>
</svg>
